<svg enable-background="new 0 0 300 80" viewBox="0 0 300 80" xmlns="http://www.w3.org/2000/svg"><path d="m61 69.3c0 2.6-1.1 4.1-3.1 4.9-8.1 3.1-17.7 4.7-26.8 4.7s-18.7-1.6-26.8-4.7c-2.1-.8-3.1-2.3-3.1-4.9v-69.1h59.8z" fill="#0060a9"/><path d="m17.2 42.3c-8.3-5.2-11-7.5-11.3-10.9 0-.7.1-1.9.4-2.7l-.8-.5c-.6 1-1 2.3-1 3.5 0 2 .6 3.4 1.4 4.6 1.2 1.8 2.4 2.9 5.4 5.2 3.3 2.4 5.5 5.3 6.8 8.3h.5v-3.4c4.4 2.5 8.3 4.8 10.2 9h.5c-.9-4.3-3.3-7.6-12.1-13.1z" fill="#fd0"/><path d="m55.4 55.5h-.6c0-3.1-2.8-3.9-5.8-3.9h-9.3c.3 1.5.4 3.3.2 5h-.5c-.9-7-4.8-10.4-10.3-14.1v3.2h-.5c-1.5-3.3-4.7-6.3-7.7-8.5-.8-.6-1.6-1.2-2.5-1.8v3.4h-.5c-1.3-3.4-3.6-5.9-7-8.9-3.6-3.2-5.1-5.2-5.9-7.4-.5-1.4-.7-2.4-.7-3.9 0-2.7 1.3-5 3-5.9v1.3c-.8 1.1-1.3 2.5-1.3 3.9 0 1.3.3 2.8 1 4 2 3.9 8.9 8.6 13.2 11.5 13.5 9 16.2 10.6 18.4 15.4.2.5.5 1.3.7 2.1 1.9-.3 9-1.4 10.3-1.6.2 0 .8-.1 1-.1 1.2-.8 2.2-1.8 3-3l-5.2-.4c-.3.6-.5 1.1-.8 1.5h-.4c.1-.5.3-1 .4-1.6l-1.3-.1v-.3l1.7-.3c.3-1.5.4-2.8.4-4.1l-6.5-.4v1.9h-.4c-.1-.6-.2-1.3-.3-1.9l-1.4-.1v-.4l1.4-.1c-.2-1.7-.2-3.3-.1-4.7l-3.9-.2c.2.3.4.7.5 1 .8 2.3.6 5 .4 6.2h-.5c-.1-1.4-.5-3.2-1-4.3-1.1-2.5-3.4-4.7-7.4-7.2v3.3h-.5c-1.3-4.2-4.6-6.5-9.5-9-4-2.1-5.3-4.6-5-8.4l1.4.8c.3 3.6 3.1 5.7 6 5.7 1.7 0 3.3-.2 4.8-.5 2.2-.4 4.3-.8 6-.2v-2.1h-1.4c-.5.4-1.5.9-2.9.9-1.6 0-4.6-.9-4.6-4.2 0-2.9 2.5-3.4 4.5-3.4 1.1 0 2.9 0 3.5-.1.4 0 .8-.1 1-.3s.3-.5.4-.8c.1-.4.1-.7.1-1.4 0-.2 0-2.1 0-2.1h-9.3v3.7l-3.5-1.3v-.9h1.7v-1.6h-6.3v-3h-2.1c-1.1 0-2.5.8-2.6 2.4-.1 1.5.6 2.7 2.1 2.7h.3v1.8h-.3c-2.7 0-4.7-2-4.7-4.7 0-2.8 2.4-4.9 5.3-4.9h4.4v3.1h17.6v4.5c0 .8 0 1.8-.1 2.4-.1.5-.2 1.3-1.1 2-.5.4-1.3.6-2.7.6-.4 0-1.7 0-3.2-.1-2-.1-2.6.6-2.7 1.4v.4c.9-.7 2.3-1.2 3.8-.8 2.7.8 3.4.9 4.8-.2l.1.3c-.1.2-.4.6-.8.9h1.3v7l4-2.4h11.2s4.8 2.5 5.5 2.9 1 .8 1.1 1.4c.1.5 0 1.2-.3 1.7-.2.3-1.5 2.4-2.1 3.5 1.9 2.1 3.2 5 3.2 8.2 0 2.9-1.1 6.7-4.6 9.5 1.5.5 2.5 1.3 3.3 2.5zm-25.1-37.6c-1.6-.3-2.5-.2-3.4.7.4.2 1 .3 1.6.3.9 0 1.5-.6 1.8-1zm-.9 10.1 4.4-2.7c-.9-.4-1.8-.7-3-.7-1.5 0-4.1.7-5.4.9.6.3 2.6 1.6 4 2.5zm19.8.3.6-.9-1-1.3.2-.3 2.7 1.4-.6 1.8c.4.2.8.5 1.4.8l1.7-2.9-4.5-2.3h-9.9l-8.1 4.8c1.5 1.1 2.9 2.2 3.9 3.3 2.2-3.1 6-5.1 9.7-5.1 1.3.1 2.8.3 3.9.7zm-.8 11.2c-.1-1.5-.2-2.8-.5-4l-5.3-.2c-.4 1.6-.6 3.2-.7 4.6zm1.8-3.9c.2 1.4.2 2.6.1 3.8l5.2-.3c-.1-1.2-.5-2.3-1-3.3zm-2.6-1.7c-.6-1.9-1.2-3.2-1.6-3.8-.2 0-.4 0-.7 0-.4 0-.7 0-1.1.1-.5 1.3-1 2.6-1.3 4zm1.4-3.2c.4 1 .7 2.1.9 3l3.2-.2c-1.1-1.2-2.5-2.1-4.1-2.8zm5.9 13.5c.4-.9.6-1.8.7-2.9l-5.5-.3c-.2 1.5-.6 2.8-1.1 3.9zm-13.4-13.2c-1.8.8-3.1 1.9-4.2 3.5l3.7-.2c.2-1.7.4-2.8.5-3.3z" fill="#fd0"/><g fill="#fff"><path d="m34.6 63.5c1.5-.2 3-1.4 3-3.2 0-1.6-.7-3.4-5.4-3.4-3.5 0-8 0-8 0v.1c.2.1.6.3.9.5.5.5.7 1.3.7 2.4v11.9h6.6c3.6 0 6.3-1.4 6.3-4.6 0-2.5-2-3.6-4.1-3.7zm-3.4-5.2c1.7 0 2.8.4 2.8 2.2 0 1.9-1.5 2.4-3.3 2.4-.8 0-1.5 0-1.5 0v-4.6zm.2 12.1c-.7 0-2.1 0-2.1 0v-6.1h2c2.8 0 3.9.8 3.9 2.9 0 2.3-1.4 3.2-3.8 3.2z"/><path d="m18.4 71.8h4.3l-5.5-7c2.2-.6 3.8-1.8 3.8-4 0-2.6-1.5-3.9-5.6-3.9-3.6 0-8.3 0-8.3 0v.1c.3.1.6.3.9.5.6.6.8 1.4.8 2.6v11.6h3.4v-6.6h1.3zm-6.2-13.5h2.3c1.9 0 2.9.6 2.9 2.6 0 1.8-1.3 2.9-3.4 2.9-.8 0-1.8 0-1.8 0z"/><path d="m52.6 59c.9.5 1.2 1.2 1.2 1.2 0 .1.1 0 .1 0l.8-2.6s-1.3-1-4.6-1c-4.8 0-8.5 2.4-8.5 7.8 0 6 4.3 7.6 8.1 7.6 3.5 0 4.9-1.1 4.9-1.1v-1.8s-1.3 1.2-3.9 1.2c-2.2 0-5.5-1-5.5-6-.1-4.6 1.9-6.1 4.6-6.1 1.6.1 2.3.5 2.8.8z"/></g><g fill="#0060a9"><path d="m101.4 6c2.6 0 4.8.5 6.5 1.8 1.6 1.3 2.7 3.1 2.7 5.8 0 3.4-2.2 6.1-5.2 7.2l8.3 12.3h-6.3l-7.4-11.2h-3.6v11.1h-5.1v-21.6c0-1.8 0-3.2-.7-4.1-.4-.5-1.1-.9-1.7-1v-.3zm-1.1 12.9c3.7 0 5.1-3.1 5.1-5.2 0-2.6-1.8-4.8-4.9-4.8h-3.9v10z"/><path d="m128.3 6c5.8 0 8.4 3.2 8.4 6.4 0 2.9-1.8 4.8-4.2 5.7 3.7 1.2 5.5 3.3 5.5 6.8 0 2-.9 4-2.6 5.6-1.6 1.5-4.2 2.5-7 2.5h-10.8v-21.6c0-1.8 0-3.2-.7-4.1-.4-.5-1.1-.9-1.7-1v-.3zm-1.3 11.2c2.5 0 4.6-1.7 4.6-4.4 0-2.2-1.9-4-4.8-4h-3.8v8.4zm0 13c3.7 0 5.7-2.4 5.7-5.5 0-2.7-2.2-4.6-5-4.6h-4.8v10.1z"/><path d="m163 11.2c-1.3-1.8-3.7-3.3-6.3-3.3-3.5 0-8.1 2.7-8.1 11.5 0 8.9 5.8 11.5 9.6 11.5 3.7 0 6.1-2.6 6.1-2.6v3.7s-2.4 1.7-7.6 1.7c-6.8 0-13.7-3.9-13.7-14.2 0-9.3 6.2-14.3 13.7-14.3 3.8 0 7 1.3 8.1 1.9z"/><path d="m191.3 6c2.5 0 4.9.5 6.4 1.8 1.8 1.5 2.9 3.5 2.9 6.1 0 4.4-3.8 7.9-9.3 7.9h-4v11.2h-5.1v-21.6c0-1.8 0-3.2-.7-4.1-.4-.5-1.1-.9-1.7-1v-.3zm-1 12.9c3.1 0 5-2.2 5-5 0-2.9-1.9-5-5-5h-3v10z"/><path d="m224.4 33h-17.6v-27h5.1v24.2h12.5z"/><path d="m245.7 33-2.7-8.4h-9.2l-2.7 8.4h-4.6l9.7-27h5.3l9.7 27.1h-5.5zm-7.3-22.9-3.7 11.6h7.4z"/><path d="m274.4 11.2c-1.3-1.8-3.7-3.3-6.3-3.3-3.5 0-8.1 2.7-8.1 11.5 0 8.9 5.8 11.5 9.6 11.5 3.7 0 6.1-2.6 6.1-2.6v3.7s-2.4 1.7-7.6 1.7c-6.8 0-13.7-3.9-13.7-14.2 0-9.3 6.2-14.3 13.7-14.3 3.8 0 7 1.3 8.1 1.9z"/><path d="m300.1 33h-17.6v-27h17.2v2.9h-12.1v8.9h10.4v2.8h-10.4v9.6h12.5z"/><path d="m96.6 44.2v24.2h12.5v2.9h-17.6v-21.7c0-1.8 0-3.2-.7-4.1-.4-.5-1.1-.9-1.7-1v-.4h7.5z"/><path d="m124.4 71.9c-6.8 0-12.4-5.5-12.4-14.2 0-8.8 5.6-14.3 12.4-14.3s12.3 5.5 12.3 14.3-5.6 14.2-12.3 14.2zm0-25.6c-4.1 0-7 4.4-7 11.5 0 7 2.8 11.5 7 11.5 4 0 6.9-4.5 6.9-11.5-.1-7.1-2.9-11.5-6.9-11.5z"/><path d="m163.3 71.2h-4.8l-10.8-22.6.2 22.6h-4.8v-27h6.3l8.5 18c.3.5.7 1.5.9 2-.1-.9-.1-2.4-.1-3.9l-.2-16.1h4.8z"/><path d="m178.5 44.2c3.5 0 7 .9 9.3 2.8 3.2 2.5 5.1 6.4 5.1 10.7 0 4.2-2 8.4-5.1 10.9-2.4 1.9-5.9 2.6-9.3 2.6h-7.5v-27zm-2.4 24.2h2.3c3.1 0 5.3-1 6.8-2.8 1.6-1.8 2.4-5 2.4-7.8s-.8-6-2.4-7.9c-1.5-1.8-3.7-2.8-6.8-2.8h-2.3z"/><path d="m210.6 71.9c-6.8 0-12.4-5.5-12.4-14.2 0-8.8 5.6-14.3 12.4-14.3s12.3 5.5 12.3 14.3-5.6 14.2-12.3 14.2zm0-25.6c-4.1 0-7 4.4-7 11.5 0 7 2.8 11.5 7 11.5 4 0 6.9-4.5 6.9-11.5-.1-7.1-2.9-11.5-6.9-11.5z"/><path d="m249.5 71.2h-4.8l-10.8-22.6.2 22.6h-4.8v-27h6.3l8.5 18c.3.5.7 1.5.9 2-.1-.9-.1-2.4-.1-3.9l-.2-16.1h4.8z"/></g></svg>